<svg
    xmlns="http://www.w3.org/2000/svg" xmlns:xlink="http://www.w3.org/1999/xlink"
    version="1.1" viewBox="0 0 1244 1154" preserveAspectRatio="xMidYMid slice">
  <title>Study filters: camouflage</title>
  <desc>
    Author: Osamu Matsuda (osmatsuda@gmail.com)
    Licence: Creative Commons Attribution 4.0 International (CC BY 4.0)
    https://creativecommons.org/licenses/by/4.0/
  </desc>
  <defs>
    <filter id="F1">
      <feImage xlink:href="camo_ptn_s.svg" result="img"
	       width="950" height="700" preserveAspectRatio="xMinYMin slice"/>
      <feColorMatrix in="img" result="hue" type="hueRotate" values="90"/>
      <feColorMatrix in="SourceGraphic" result="path" type="hueRotate" values="90"/>
      <feComposite in="hue" in2="path" operator="atop"/>
    </filter>
    <filter id="F2">
      <feImage xlink:href="camo_ptn_s.svg" result="img"
	       width="950" height="700" preserveAspectRatio="xMinYMid slice"/>
      <feColorMatrix in="img" result="hue" type="hueRotate" values="90"/>
      <feColorMatrix in="hue" result="sat" type="saturate" values="0.6"/>
      <feColorMatrix in="SourceGraphic" result="p" type="hueRotate" values="90"/>
      <feColorMatrix in="p" result="psat" type="saturate" values="0.5"/>
      <feComposite in="sat" in2="psat" operator="atop"/>
    </filter>
    <filter id="F3">
      <feImage xlink:href="camo_ptn_s.svg" result="img"
	       width="950" height="700" preserveAspectRatio="xMinYMax slice"/>
      <feColorMatrix in="img" result="hue" type="hueRotate" values="90"/>
      <feColorMatrix in="hue" result="sat" type="saturate" values="0.1"/>
      <feColorMatrix in="SourceGraphic" result="p" type="hueRotate" values="90"/>
      <feColorMatrix in="p" result="psat" type="saturate" values="0.5"/>
      <feComposite in="sat" in2="psat" operator="atop"/>
    </filter>
    <filter id="F4">
      <feImage xlink:href="camo_ptn_s.svg" result="img"
	       width="950" height="700" preserveAspectRatio="xMidYMin slice"/>
      <feColorMatrix in="img" result="hue" type="hueRotate" values="90"/>
      <feGaussianBlur in="hue" result="blr" stdDeviation="30 3"/>
      <feColorMatrix in="SourceGraphic" result="p" type="hueRotate" values="90"/>
      <feComposite in="blr" in2="p" operator="atop"/>
    </filter>
    <filter id="F5">
      <feImage xlink:href="camo_ptn_s.svg" result="img"
	       width="950" height="700" preserveAspectRatio="xMidYMid slice"/>
      <feColorMatrix in="img" result="hue" type="hueRotate" values="70"/>
      <feColorMatrix in="hue" result="sat" type="saturate" values="0.3"/>
      <feGaussianBlur in="sat" result="blr" stdDeviation="0 10"/>
      <feColorMatrix in="SourceGraphic" result="p" type="hueRotate" values="90"/>
      <feColorMatrix in="p" result="psat" type="saturate" values="0.5"/>
      <feComposite in="blr" in2="psat" operator="atop"/>
    </filter>
    <filter id="F6">
      <feImage xlink:href="camo_ptn_s.svg" result="img"
	       width="950" height="700" preserveAspectRatio="xMidYMax slice"/>
      <feColorMatrix in="img" result="hue" type="hueRotate" values="90"/>
      <feColorMatrix in="hue" result="sat" type="saturate" values="0.6"/>
      <feGaussianBlur in="sat" result="blr" stdDeviation="10 10"/>
      <feColorMatrix in="SourceGraphic" result="p" type="hueRotate" values="90"/>
      <feColorMatrix in="p" result="psat" type="saturate" values="0.5"/>
      <feComposite in="blr" in2="psat" operator="atop"/>
    </filter>
    <filter id="F7">
      <feImage xlink:href="camo_til.svg" result="til_s" x="90%" y="90%" width="20" height="20"/>
      <feTile in="til_s" result="til"/>
      <feImage xlink:href="camo_ptn_s.svg" result="img"
	       width="950" height="700" preserveAspectRatio="xMaxYMin slice"/>
      <feColorMatrix in="img" result="hue" type="hueRotate" values="90"/>
      <feColorMatrix in="SourceGraphic" result="p" type="hueRotate" values="90"/>
      <feComposite in="hue" in2="p" result="huep" operator="atop"/>
      <feComposite in="huep" in2="til" operator="in"/>
    </filter>
    <filter id="F8">
      <feImage xlink:href="camo_til.svg" result="til_s" x="90%" y="15%" width="10" height="10"/>
      <feTile in="til_s" result="til"/>
      <feImage xlink:href="camo_ptn_s.svg" result="img"
	       width="950" height="700" preserveAspectRatio="xMaxYMin slice"/>
      <feColorMatrix in="img" result="hue" type="hueRotate" values="90"/>
      <feColorMatrix in="hue" result="sat" type="saturate" values="0.8"/>
      <feColorMatrix in="SourceGraphic" result="p" type="hueRotate" values="90"/>
      <feComposite in="sat" in2="p" result="huep" operator="atop"/>
      <feComposite in="huep" in2="til" operator="in"/>
    </filter>
    <path
	id="L11"
	d="M 2,765 C 52,799 89,800 120,769 144,745 208,779 253,812 299,845 336,845 425,847 522,848 546,895 523,964 502,1026 458,1151 374,1103 303,1061 318,1002 257,985 203,970 154,1015 101,1076 49,1138 -12,1169 -60,1126 -99,1089 -122,1029 -80,981 -37,932 -12,884 -48,868 -104,843 -134,806 -107,767 -86,738 -41,736 2,765 Z"/>
    <path
	id="L10"
	d="M -59,306 C -79,246 -38,232 -40,176 -41,132 -13,110 21,110 97,109 126,205 152,245 178,284 220,268 194,228 167,188 157,133 190,134 223,135 281,162 320,213 364,270 393,321 371,355 343,399 368,443 356,474 335,531 291,516 229,476 168,437 185,515 126,539 71,562 63,460 27,494 -35,554 -109,543 -72,474 -41,416 -35,379 -59,306 Z"/>
    <path
	id="L9"
	d="M 467,-52 C 581,-75 669,-41 724,5 783,55 790,100 759,129 719,167 745,238 707,268 685,285 665,253 643,280 615,316 581,306 573,285 559,247 502,266 482,238 456,202 500,135 444,142 398,147 374,202 356,262 343,308 309,301 283,248 261,203 259,146 279,108 297,73 343,67 378,40 413,12 387,-36 467,-52 Z" />
    <path
	id="L8-2"
	d="M 650,375 C 715,417 790,381 817,392 845,402 819,457 809,493 796,539 806,586 881,612 934,630 906,688 832,701 787,708 741,689 712,717 687,741 693,779 716,804 749,841 766,886 736,909 699,937 654,921 613,853 571,785 564,693 505,695 459,697 428,793 381,712 360,676 328,638 289,643 225,651 191,637 196,596 201,549 256,531 315,531 363,531 383,496 392,465 401,433 408,376 471,385 533,394 574,327 650,375 Z" />
    <path
	id="L8-1"
	d="M 256,-234 C 321,-192 396,-228 423,-217 451,-207 425,-152 415,-116 402,-70 412,-23 487,3 540,21 512,79 438,92 393,99 347,80 318,108 293,132 299,170 322,195 355,232 372,277 342,300 305,328 260,312 219,244 177,176 170,84 111,86 65,88 34,184 -13,103 -34,67 -66,29 -105,34 -169,42 -203,28 -198,-13 -193,-60 -138,-78 -79,-78 -31,-78 -11,-113 -2,-144 7,-176 14,-233 77,-224 139,-215 180,-282 256,-234 Z" />
    <path
	id="L7"
	d="M 592,808 C 587,747 638,741 685,764 727,784 768,766 810,735 848,706 879,747 887,812 895,876 945,878 975,834 1016,774 1011,686 1094,682 1156,678 1189,807 1204,895 1223,1012 1239,1111 1134,1118 1038,1124 1017,1026 892,1011 809,1000 736,1030 669,1093 616,1143 566,1100 545,1036 519,956 600,898 592,808 Z" />
    <path
	id="L6-2"
	d="M -65,1013 C -31,1030 -10,1048 15,1019 40,990 91,971 153,986 227,1004 254,948 306,932 376,912 437,914 468,940 521,984 538,1052 603,1068 680,1086 700,1165 579,1192 459,1218 415,1188 324,1256 224,1331 154,1352 135,1313 121,1281 154,1231 197,1206 271,1163 339,1110 292,1091 243,1072 224,1122 176,1129 141,1135 131,1060 89,1089 55,1114 112,1179 88,1234 61,1299 -13,1343 -46,1291 -98,1209 -44,1147 -86,1102 -148,1035 -135,978 -65,1013 Z" />
    <path
	id="L6-1"
	d="M 641,78 C 675,95 696,113 721,84 746,55 797,36 859,51 933,69 960,13 1012,-3 1082,-23 1143,-21 1174,5 1227,49 1244,117 1309,133 1386,151 1406,230 1285,257 1165,283 1121,253 1030,321 930,396 860,417 841,378 827,346 860,296 903,271 977,228 1045,175 998,156 949,137 930,187 882,194 847,200 837,125 795,154 761,179 818,244 794,299 767,364 693,408 660,356 608,274 662,212 620,167 558,100 571,43 641,78 Z" />
    <path
	id="L5-2"
	d="M 1720,331 C 1675,305 1630,314 1578,296 1535,281 1553,238 1484,207 1418,179 1346,192 1285,165 1222,138 1192,162 1180,204 1168,248 1095,232 1093,295 1092,329 1097,367 1073,394 1044,426 1037,498 1081,491 1125,485 1158,404 1185,390 1215,375 1215,416 1243,421 1272,427 1294,399 1293,356 1292,310 1311,272 1337,282 1360,291 1363,322 1389,330 1424,340 1441,368 1429,404 1416,444 1429,469 1475,456 1521,442 1559,384 1635,388 1710,391 1779,364 1720,331 Z" />
    <path
	id="L5-1"
	d="M 1342,-1 C 1297,-27 1252,-18 1200,-36 1157,-51 1175,-94 1106,-125 1040,-153 968,-140 907,-167 844,-194 814,-170 802,-128 790,-84 717,-100 715,-37 714,-3 719,35 695,62 666,94 659,166 703,159 747,153 780,72 807,58 837,43 837,84 865,89 894,95 916,67 915,24 914,-22 933,-60 959,-50 982,-41 985,-10 1011,-2 1046,8 1063,36 1051,72 1038,112 1051,137 1097,124 1143,110 1181,52 1257,56 1332,59 1401,32 1342,-1 Z" />
    <path
	id="L4"
	d="M 869,971 C 814,955 808,912 769,925 729,937 744,981 722,1016 695,1060 693,1100 719,1109 748,1118 766,1065 792,1073 827,1084 816,1130 802,1155 785,1186 753,1193 704,1197 669,1200 644,1227 647,1279 650,1325 689,1350 748,1338 795,1329 821,1276 848,1216 875,1155 913,1113 953,1094 993,1074 1038,1080 1060,1103 1101,1147 1170,1129 1176,1164 1185,1218 1139,1264 1180,1284 1228,1306 1260,1259 1314,1238 1370,1218 1365,1149 1291,1148 1257,1148 1234,1125 1256,1101 1281,1073 1274,1047 1253,1036 1209,1012 1231,974 1203,959 1180,947 1151,966 1133,993 1117,1016 1100,1035 1058,1024 1022,1014 1032,969 1066,976 1091,982 1110,977 1119,965 1127,954 1119,934 1097,921 1073,906 1035,900 1001,903 966,907 962,924 975,940 1005,976 986,1013 953,1021 929,1027 911,984 869,971 Z" />
    <path
	id="L3"
	d="M 143,292 C 65,268 -16,279 -63,316 -110,351 -97,404 -59,446 -15,494 -5,531 -34,570 -70,618 -83,683 -51,739 -20,795 22,817 84,809 156,800 197,811 230,838 293,891 359,899 379,875 399,852 361,792 325,766 287,739 266,704 259,678 249,639 215,636 186,674 162,705 132,696 109,662 89,633 92,601 125,594 176,582 211,548 189,511 166,473 130,486 89,472 56,460 55,413 93,404 137,393 157,434 187,444 225,456 264,452 312,428 349,410 372,443 386,480 406,530 444,565 467,547 490,528 477,462 437,380 406,319 358,352 311,356 265,361 229,319 143,292 Z" />
    <path
	id="L2"
	d="M 554,559 C 501,560 471,569 467,598 464,625 503,652 550,635 609,615 652,616 654,660 656,712 679,745 713,748 744,750 758,725 769,690 776,668 797,660 823,667 853,674 873,652 862,605 853,570 854,531 873,524 891,517 932,533 960,582 980,618 971,651 950,679 931,702 925,748 947,759 968,769 999,752 1024,716 1049,679 1055,632 1077,612 1099,592 1138,585 1165,629 1192,673 1179,722 1200,769 1218,810 1252,823 1282,797 1315,770 1289,693 1331,673 1381,650 1406,617 1409,574 1413,524 1368,502 1328,534 1293,563 1257,561 1216,533 1176,504 1157,487 1120,498 1083,508 1032,513 1027,483 1022,453 1034,421 1045,406 1056,390 1025,379 990,396 954,414 896,431 845,403 794,376 770,405 790,454 807,499 795,519 765,514 737,509 712,519 713,546 713,579 684,581 674,561 664,542 674,503 663,472 652,444 622,444 610,474 597,505 603,558 554,559 Z" />
    <path
	id="L1-3"
	d="M 1293,357 C 1260,357 1247,375 1245,391 1244,408 1253,423 1237,424 1221,426 1206,433 1203,455 1201,478 1196,489 1166,483 1124,474 1123,498 1134,505 1150,515 1174,514 1181,529 1188,544 1170,560 1141,560 1114,559 1089,572 1074,588 1058,605 1049,632 1064,642 1090,659 1134,657 1174,639 1200,628 1203,589 1227,590 1242,590 1234,614 1223,635 1214,654 1223,665 1239,658 1256,651 1265,611 1293,615 1327,619 1349,615 1359,592 1367,576 1357,545 1316,530 1288,519 1247,525 1250,505 1254,479 1287,490 1295,464 1304,437 1319,428 1344,437 1379,449 1413,442 1412,424 1409,394 1363,357 1293,357 Z" />
    <path
	id="L1-2"
	d="M 777,883 C 744,883 731,901 729,917 728,934 737,949 721,950 705,952 690,959 687,981 685,1004 680,1015 650,1009 608,1000 607,1024 618,1031 634,1041 658,1040 665,1055 672,1070 654,1086 625,1086 598,1085 573,1098 558,1114 542,1131 533,1158 548,1168 574,1185 618,1183 658,1165 684,1154 687,1115 711,1116 726,1116 718,1140 707,1161 698,1180 707,1191 723,1184 740,1177 749,1137 777,1141 811,1145 833,1141 843,1118 851,1102 841,1071 800,1056 772,1045 731,1051 734,1031 738,1005 771,1016 779,990 788,963 803,954 828,963 863,975 897,968 896,950 893,920 847,883 777,883 Z" />
    <path
	id="L1-1"
	d="M 9,686 C -24,686 -37,704 -39,720 -40,737 -31,752 -47,753 -63,755 -78,762 -81,784 -83,807 -88,818 -118,812 -160,803 -161,827 -150,834 -134,844 -110,843 -103,858 -96,873 -114,889 -143,889 -170,888 -195,901 -210,917 -226,934 -235,961 -220,971 -194,988 -150,986 -110,968 -84,957 -81,918 -57,919 -42,919 -50,943 -61,964 -70,983 -61,994 -45,987 -28,980 -19,940 9,944 43,948 65,944 75,921 83,905 73,874 32,859 4,848 -37,854 -34,834 -30,808 3,819 11,793 20,766 35,757 60,766 95,778 129,771 128,753 125,723 79,686 9,686 Z" />
  </defs>
  <rect fill="hsl(80,20%,30%)" width="1244" height="1154"/>
  <g id="main" fill="hsl(0,25%,35%)">
    <use xlink:href="#L11" fill="hsl(90,50%,35%)" display="block"/>
    <use xlink:href="#L11" filter="url(#F1)" display="none"/>
    <use xlink:href="#L10" fill="hsl(90,70%,35%)" display="block"/>
    <use xlink:href="#L10" filter="url(#F2)" display="none"/>
    <use xlink:href="#L9" fill="hsl(90,25%,35%)" display="block"/>
    <use xlink:href="#L9" filter="url(#F3)" display="none"/>
    <use xlink:href="#L8-2" fill="hsl(60,50%,35%)" display="block"/>
    <use xlink:href="#L8-2" filter="url(#F5)" display="none"/>
    <use xlink:href="#L8-1" fill="hsl(140,70%,40%)" display="block"/>
    <use xlink:href="#L8-1" filter="url(#F6)" display="none"/>
    <use xlink:href="#L7" fill="hsl(140,30%,40%)" display="block"/>
    <use xlink:href="#L7" filter="url(#F7)" display="none"/>
    <use xlink:href="#L6-2" fill="hsl(140,70%,40%)" display="block"/>
    <use xlink:href="#L6-2" filter="url(#F6)" display="none"/>
    <use xlink:href="#L6-1" fill="hsl(70,40%,35%)" display="block"/>
    <use xlink:href="#L6-1" filter="url(#F8)" display="none"/>
    <use xlink:href="#L5-2" fill="hsl(90,50%,35%)" display="block"/>
    <use xlink:href="#L5-2" filter="url(#F1)" display="none"/>
    <use xlink:href="#L5-1" fill="hsl(90,70%,35%)" display="block"/>
    <use xlink:href="#L5-1" filter="url(#F2)" display="none"/>
    <use xlink:href="#L4" fill="hsl(90,25%,35%)" display="block"/>
    <use xlink:href="#L4" filter="url(#F3)" display="none"/>
    <use xlink:href="#L3" fill="hsl(100,80%,30%)" display="block"/>
    <use xlink:href="#L3" filter="url(#F4)" display="none"/>
    <use xlink:href="#L2" fill="hsl(90,50%,35%)" display="block"/>
    <use xlink:href="#L2" filter="url(#F1)" display="none"/>
    <use xlink:href="#L1-3" fill="hsl(140,70%,40%)" display="block"/>
    <use xlink:href="#L1-3" filter="url(#F6)" display="none"/>
    <use xlink:href="#L1-2" fill="hsl(90,70%,35%)" display="block"/>
    <use xlink:href="#L1-2" filter="url(#F2)" display="none"/>
    <use xlink:href="#L1-1" fill="hsl(60,70%,35%)" display="block"/>
    <use xlink:href="#L1-1" filter="url(#F5)" display="none"/>
  </g>
  <script href="../trigger.js" type="application/ecmascript"></script>
</svg>
