<?xml version="1.0" standalone="yes"?>
<svg version="1.1"
     xmlns:xlink="http://www.w3.org/1999/xlink"
     xmlns="http://www.w3.org/2000/svg"
     viewBox="0 0 2400 1800">
  <desc>
    Author: osmatsuda@gmail.com
    Licence: Creative Commons Attribution 4.0 International (CC BY 4.0) https://creativecommons.org/licenses/by/4.0/
  </desc>
  <defs>
    <path id="cloock-black-0" d="M 100,20 C 55.81722,20 20,55.81722 20,100 l 0,160 c 0,44.18278 35.81722,80 80,80 l 40,0 c 44.18278,0 80,-35.81722 80,-80 l 0,-160 C 220,55.81722 184.18278,20 140,20 l -40,0 z m 20,40 c 11.04569,0 20,8.954305 20,20 l 0,200 c 0,11.0457 -8.95431,20 -20,20 -11.04569,0 -20,-8.9543 -20,-20 l 0,-200 c 0,-11.045695 8.95431,-20 20,-20 z" />
    <path id="cloock-black-1" d="M 130,20 C 119.28572,36.428571 92.857143,41.428572 60,50 l 0,40 20,0 0,250 80,0 0,-320 z" />
    <path id="cloock-black-2" d="M 100,20 C 55.81722,20 20,55.81722 20,100 l 0,40 80,0 0,-60 c 0,-11.045695 8.95431,-20 20,-20 11.04569,0 20,8.954305 20,20 0,25 -4.87818,41.56118 -20,65 C 86.666667,196.66667 20,300 20,300 l 0,40 200,0 0,-50 -98.15625,0 L 200,165 c 9.4689,-14.59452 20,-35 20,-65 0,-44.18278 -35.81722,-80 -80,-80 z" />
    <path id="cloock-black-3" d="M 100,20 C 55.81722,20 20,55.81722 20,100 l 0,20 80,0 0,-40 c 0,-11.045695 8.95431,-20 20,-20 11.04569,0 20,8.954305 20,20 l 0,50 c 0,11.0457 -8.95431,20 -20,20 l -20,0 0,40 20,0 c 11.04569,0 20,8.9543 20,20 l 0,70 c 0,11.04569 -8.95431,20 -20,20 -11.04569,0 -20,-8.95431 -20,-20 l 0,-60 -80,0 0,40 c 0,44.18278 35.81722,80 80,80 l 40,0 c 44.18278,0 80,-35.81722 80,-80 l 0,-40 C 220,194.28357 203.80435,173.9691 183.3125,165 203.80435,156.0309 220,135.71643 220,110 l 0,-10 C 220,55.81722 184.18278,20 140,20 z" />
    <path id="cloock-black-4" d="m 100,20 -80,220 0,40 100,0 0,60 80,0 0,-60 20,0 0,-40 -20,0 0,-220 z m 20,91.5625 0,128.4375 -46.78125,0 z" />
    <path id="cloock-black-5" d="m 20,20 0,150 80,0 c 0,-11.04569 8.95431,-20 20,-20 11.04569,0 20,8.95431 20,20 l 0,110 c 0,11.04569 -8.95431,20 -20,20 -11.04569,0 -20,-8.95431 -20,-20 l 0,-60 -80,0 0,40 c 0,44.18278 35.81722,80 80,80 l 40,0 c 44.18278,0 80,-35.81722 80,-80 l 0,-70 c 0,-44.18278 -35.81722,-80 -80,-80 l -40,0 0,-40 110,0 0,-50 z" />
    <path id="cloock-black-6" d="m 20,260 c 0,44.18278 35.81722,80 80,80 l 40,0 c 44.18278,0 80,-35.81722 80,-80 l 0,-40 c 0,-44.18278 -35.81722,-80 -80,-80 l -40,0 0,-60 c 0,-11.04569 8.95431,-20 20,-20 11.04569,0 20,8.95431 20,20 l 0,40 80,0 0,-20 C 220,55.81722 184.18278,20 140,20 l -40,0 C 55.81722,20 20,55.81722 20,100 z m 100,-80 c 11.04569,0 20,8.95431 20,20 l 0,80 c 0,11.04569 -8.95431,20 -20,20 -11.04569,0 -20,-8.95431 -20,-20 l 0,-80 c 0,-11.04569 8.95431,-20 20,-20 z" />
    <path id="cloock-black-7" d="m 30,20 0,50 89.0625,0 L 60,340 l 80,0 70,-320 -50,0 -30,0 -100,0 z" />
    <path id="cloock-black-8" d="m 100,130 0,-50 c 0,-11.045695 8.95431,-20 20,-20 11.04569,0 20,8.954305 20,20 l 0,50 c 0,11.0457 -8.95431,20 -20,20 -11.04569,0 -20,-8.9543 -20,-20 z m 40,80 0,70 c 0,11.04569 -8.95431,20 -20,20 -11.04569,0 -20,-8.95431 -20,-20 l 0,-70 c 0,-11.0457 8.95431,-20 20,-20 11.04569,0 20,8.9543 20,20 z M 20,260 c 0,44.18278 35.81722,80 80,80 l 40,0 c 44.18278,0 80,-35.81722 80,-80 l 0,-40 C 220,194.28357 203.80435,173.9691 183.3125,165 203.80435,156.0309 220,135.71643 220,110 l 0,-10 C 220,55.81722 184.18278,20 140,20 l -40,0 C 55.81722,20 20,55.81722 20,100 l 0,10 c 0,25.71643 16.19565,46.0309 36.6875,55 C 36.19565,173.9691 20,194.28357 20,220 z" />
    <path id="cloock-black-9" d="m 140,340 c 44.18278,0 80,-35.81722 80,-80 l 0,-160 C 220,55.81722 184.18278,20 140,20 l -40,0 C 55.81722,20 20,55.81722 20,100 l 0,40 c 0,44.18278 35.81722,80 80,80 l 40,0 0,60 c 0,11.04569 -8.95431,20 -20,20 -11.04569,0 -20,-8.95431 -20,-20 l 0,-40 -80,0 0,20 c 0,44.18278 35.81722,80 80,80 l 40,0 z M 120,180 c -11.04569,0 -20,-8.95431 -20,-20 l 0,-80 c 0,-11.04569 8.95431,-20 20,-20 11.04569,0 20,8.95431 20,20 l 0,80 c 0,11.04569 -8.95431,20 -20,20 z" />
    <path id="cloock-roman-0" d="M 120,20 C 60,20 20,80 20,180 20,280 60,340 120,340 180,340 220,280 220,180 220,80 180,20 120,20 z m 0,20 c 22.09139,0 40,50 40,130 l 0,20 c 0,80 -17.90861,130 -40,130 -22.09139,0 -40,-50 -40,-130 l 0,-20 C 80,90 97.90861,40 120,40 z" />
    <path id="cloock-roman-1" d="M 140,20 C 110,40 80,50 40,50 l 0,10 20,0 c 20,0 30,10 30,30 l 0,200 c 0,20 -10,30 -30,30 l -20,0 0,10 160,0 0,-10 -20,0 c -20,0 -30,-10 -30,-30 l 0,-265 z" />
    <path id="cloock-roman-2" d="m 120,20 c -49.705627,0 -90,40.294373 -90,90 0,15 5,25 15,35 L 85,110 C 65,90 70,40 105,40 c 24.85281,0 45,20 45,70 0,61.59853 -55.866493,130.27599 -95,175 l -35,40 10,5 15,-10 c 45,0 105,10 145,10 l 5,0 25,-70 -10,0 c 0,5 -21.14382,30 -40,30 -25.71098,0 -40,-20 -75,-20 70,-65 115,-102.38562 115,-160 0,-49.705627 -40.29437,-90 -90,-90 z" />
    <path id="cloock-roman-3" d="M 205,25 195,35 C 150,40 115,25 60,30 l -5,0 -20,70 10,0 c 0,-5 16.14382,-25 35,-25 35,0 70,-5 100,-20 L 90,175 c 45,15 70,45 75,80 5,35 -4.85179,60.80863 -30,65 -30,5 -65,-25 -75,-75 l -40,45 c 20,35 55,50 105,50 55.22847,0 95,-44.77153 95,-100 0,-45 -30,-85 -80,-95 L 220,35 z" />
    <path id="cloock-roman-4" d="m 165,20 c -15,35 -52.41283,86.04655 -80,120 l -65,80 10,20 90,0 0,50 c 0,20 -10,30 -30,30 l -10,0 0,10 140,0 0,-10 -10,0 c -20,0 -30,-10 -30,-30 l 0,-50 40,0 0,-20 -40,0 0,-135 -60,70 0,65 -75,0 L 205,30 165,20 z" />
    <path id="cloock-roman-5" d="m 20,290 c 15,30 52.482186,50 90,50 60.75132,0 110,-47.0101 110,-105 0,-57.9899 -49.24868,-105 -110,-105 l -32.979695,0 10,-55 C 137.02031,75 175,65 195,50 l 20,-15 -10,-10 -15,5 c -35,11.666667 -65,0 -95,0 L 75,30 45,170 c 70,5 105.42238,34.88207 115,70 15,55 -5.77677,87.84465 -45,80 -25,-5 -50,-40 -55,-75 z" />
    <path id="cloock-roman-6" d="M 130,20 C 60,20 20,80 20,180 c 0,100 40,160 100,160 30,0 50.33635,-9.64537 70.71875,-29.28125 C 209.14957,292.96298 220,267.61423 220,240 220,184.77153 175,140 120,140 100,140 80.34375,150 80.34375,150 82.674058,81.764422 105,40 130,40 c 30,0 35,30 40,65 L 210,60 C 194.28571,37.857143 162.85714,20 130,20 z m -10,140 c 25,0 40,25 40,80 0,55 -15,80 -40,80 -25,0 -40,-50 -40,-130 l 0,-20 c 0,0 20,-10 40,-10 z" />
    <path id="cloock-roman-7" d="m 200,25 -4.09375,10.3125 C 143.23558,39.232431 108.36797,25.125541 45,30 l -5,0 -20,85 10,0 c 0,0 5,-30 35,-30 69.20429,0 112.1513,-22.409782 122.5,-28.46875 L 80,330 l 45,0 95,-300 z" />
    <path id="cloock-roman-8" d="m 120,20 c -49.705627,0 -90,35.81722 -90,80 0,11.0457 2.50825,24.08518 7.0625,33.65625 7.908265,16.61976 23.110237,29.93387 47.59375,49.28125 C 40.612838,204.14012 20,227.71126 20,265 c 0,40 40,75 100,75 55.22847,0 100,-40.29437 100,-90 0,-21.63852 -11.80327,-43.59328 -33.21429,-62.85714 -9.25404,-8.32603 -27.75446,-24.98661 -27.75446,-24.98661 C 193.00001,142.36233 210,122.96969 210,90 210,50 169.70563,20 120,20 z m 0,20 c 25,0 40,20 40,50 0,22.42028 -4.14672,43.18044 -18.34375,59.3125 -0.99314,-0.74694 -1.99648,-1.50954 -2.96875,-2.25 C 122.51792,134.74804 109.40243,123.3457 95,107.5 88.433508,100.27548 85,90 85,80 85,60 100,40 120,40 z m -17.625,156.875 c 32.77189,25.86524 46.29344,41.50286 54.46875,62.8125 C 158.7049,264.53874 160,273.40572 160,280 c 0,22.09139 -17.90861,40 -40,40 -22.09139,0 -45,-20 -45,-55 0,-26.22064 8.435424,-49.61909 27.375,-68.125 z" />
    <path id="cloock-roman-9" d="M 110,340 C 180,340 220,280 220,180 220,80 180,20 120,20 90,20 69.66365,29.64537 49.28125,49.28125 30.85043,67.03702 20,92.38577 20,120 c 0,55.22847 45,100 100,100 20,0 39.65625,-10 39.65625,-10 C 157.32594,278.23558 135,320 110,320 90.71429,320 65.842857,295.9 60,255 l -40,45 c 19.349339,24.71825 56.42857,40 90,40 z m 10,-140 c -25,0 -40,-25 -40,-80 0,-55 15,-80 40,-80 25,0 40,50 40,130 l 0,20 c 0,0 -20,10 -40,10 z" />
    <path id="cloock-cloock-0" d="m 170,119.999973 c 0,-27.61423 -22.38576,-50 -50,-50 -27.614237,0 -50,22.38577 -50,50 l 0,120 c 0,27.61423 22.385763,50 50,50 27.61424,0 50,-22.38577 50,-50 z m 50,120 c 0,55.22847 -44.77153,100.00002 -100,100.00002 -55.228475,0 -100,-44.77155 -100,-100.00002 l 0,-120 c 0,-55.22847 44.771525,-100 100,-100 55.22847,0 100,44.77153 100,100 z"/>
    <path id="cloock-cloock-1" d="m 90,29.999973 -30,50 40,0.0128 0,250.00002 50,0 0,-300.00002 z"/>
    <path id="cloock-cloock-2" d="m 120,20.012793 c -55.228475,0 -100,44.77153 -100,100 l 50,0 c 0,-27.61424 22.385763,-50 50,-50 27.61424,0 50,22.38576 50,50 0,6.90356 -1.60337,13.77876 -3.9375,19.46875 -2.33413,5.68999 -5.6519,9.87262 -9.25,14.34375 L 20,330.012793 l 200,0 0,-50 -97.84375,0 73.15625,-94.1875 c 6.71152,-9.0543 12.38024,-17.02933 16.84375,-26.875 C 216.61976,149.104623 220,133.819913 220,120.012793 c 0,-55.22847 -44.77153,-100 -100,-100 z"/>
    <path id="cloock-cloock-3" d="m 120,20.012793 c -49.705627,0 -90,40.29437 -90,90 l 50,0 c 0,-22.09139 17.90861,-40 40,-40 22.09139,0 40,17.90861 40,40 0,11.0457 -4.48017,19.79588 -11.71875,25.78125 C 141.04267,141.779413 130,145.012793 110,145.012793 l 0,50 c 30,0 36.29553,4.32358 45.34375,12.125 9.04822,7.80143 14.65625,19.06788 14.65625,32.875 0,27.61424 -22.38576,50 -50,50 -27.614237,0 -50,-22.38576 -50,-50 l -50,0 c 0,55.22847 44.771525,100 100,100 55.22847,0 100,-44.77153 100,-100 0,-35.01282 -13.23116,-55.97922 -30.9375,-72.28125 C 202.13224,152.107823 210,131.975543 210,110.012793 c 0,-49.70563 -40.29437,-90 -90,-90 z"/>
    <path id="cloock-cloock-4" d="m 150,164.999973 0,75.01282 -50,-0.0128 z M 10,290.012793 l 140,0 0,40 50,0 0,-40 30,0 0,-50 -30,0 0,-230 z"/>
    <path id="cloock-cloock-5" d="m 63.03125,200.012793 c 5.186964,-8.96771 12.611991,-16.46068 21.53125,-21.71875 8.919259,-5.25807 19.33275,-8.28125 30.4375,-8.28125 33.13708,0 60,26.86292 60,60 0,33.13708 -26.86292,60 -60,60 -22.209499,0 -41.594822,-12.06458 -51.96875,-30 l -43.3125,25 c 19.020651,32.8747 54.569006,55 95.28125,55 60.75132,0 110,-49.24868 110,-110 0,-60.75132 -49.24868,-110 -110,-110 -6.52612,0 -12.91107,0.56606 -19.125,1.65625 L 102.59375,80.012793 210,79.999973 l 0,-50 -150,0.0128 -24.8125,153.9375 z"/>
    <path id="cloock-cloock-6" d="m 133.65625,16.856543 -96.5,167.15625 c -0.02127,0.0314 -0.04126,0.0623 -0.0625,0.0937 C 26.311316,200.066643 20,219.302113 20,240.012793 c 0,55.22847 44.771525,100 100,100 55.22847,0 100,-44.77153 100,-100 0,-55.13491 -44.61931,-99.84867 -99.71875,-100 l 56.65625,-98.15625 -43.28125,-25 z M 120,190.012793 c 27.61424,0 50,22.38576 50,50 0,27.61424 -22.38576,50 -50,50 -27.614237,0 -50,-22.38576 -50,-50 0,-27.61424 22.385763,-50 50,-50 z"/>
    <path id="cloock-cloock-7" d="m 237.21875,30.012793 -217.21875,0 0,50 131.03125,0 L 16.59375,315.168993 60,340.012793 z"/>
    <path id="cloock-cloock-8" d="m 120,20.012793 c -49.705627,0 -90,39.17862 -90,87.5 0,23.59057 9.604676,44.98285 25.21875,60.71875 -2.044275,1.69729 -4.040072,3.46239 -5.9375,5.3125 C 31.184809,191.189233 20,215.587143 20,242.512793 c 0,53.8513 44.771525,97.5 100,97.5 55.22847,0 100,-43.6487 100,-97.5 0,-26.92565 -11.18481,-51.32356 -29.28125,-68.96875 -1.89743,-1.85012 -3.89322,-3.61521 -5.9375,-5.3125 C 200.39533,152.495643 210,131.103363 210,107.512793 c 0,-48.32138 -40.29437,-87.5 -90,-87.5 z m 0,48.59375 c 22.09139,0 40,17.43008 40,38.90625 0,21.47617 -17.90861,38.875 -40,38.875 -22.09139,0 -40,-17.39883 -40,-38.875 0,-21.47617 17.90861,-38.90625 40,-38.90625 z m 0,125.15625 c 27.61424,0 50,21.82435 50,48.75 0,26.92566 -22.38576,48.75 -50,48.75 -27.614237,0 -50,-21.82434 -50,-48.75 0,-26.92565 22.385763,-48.75 50,-48.75 z"/>
    <path id="cloock-cloock-9" d="m 120,20.012793 c -55.228475,0 -100,44.77153 -100,100 0,55.13491 44.619301,99.84867 99.71875,100 l -56.65625,98.125 43.28125,25 L 202.75,176.169043 C 213.63435,160.160763 220,140.830113 220,120.012793 c 0,-55.22847 -44.77153,-100 -100,-100 z m 0,50 c 27.61424,0 50,22.38576 50,50 0,27.61424 -22.38576,50 -50,50 -27.614237,0 -50,-22.38576 -50,-50 0,-27.61424 22.385763,-50 50,-50 z"/>
    <path id="cloock-type-0" d="M 120,45 C 85.681818,45 55.453071,60.594502 36.8125,85.71875 18.171929,110.843 10,143.65385 10,180 c 0,36.34615 8.171929,69.157 26.8125,94.28125 C 55.453071,299.4055 85.681818,315 120,315 c 34.31818,0 64.54693,-15.5945 83.1875,-40.71875 C 221.82807,249.157 230,216.34615 230,180 230,143.65385 221.82807,110.843 203.1875,85.71875 184.54693,60.594502 154.31818,45 120,45 z m 0,50 c 20.68182,0 32.95307,6.9055 43.0625,20.53125 C 173.17193,129.157 180,151.34615 180,180 c 0,28.65385 -6.82807,50.843 -16.9375,64.46875 C 152.95307,258.0945 140.68182,265 120,265 99.318182,265 87.046929,258.0945 76.9375,244.46875 66.828071,230.843 60,208.65385 60,180 60,151.34615 66.828071,129.157 76.9375,115.53125 87.046929,101.9055 99.318182,95 120,95 z" />
    <path id="cloock-type-1" d="m 180,310 c 6.60391,0.0934 13.20451,-2.559 17.90755,-7.196 4.70304,-4.637 7.4485,-11.19943 7.4485,-17.804 0,-6.60457 -2.74546,-13.167 -7.4485,-17.804 C 193.20451,262.559 186.60391,259.9066 180,260 l -35,0 0,-185 C 144.90569,68.331607 142.01054,61.747034 137.16027,57.169777 132.31,52.59252 125.56893,50.083258 118.90625,50.375 112.80879,50.646275 106.31663,52.766654 102.49062,57.522108 96.696524,64.723755 93.952354,73.296132 81.09375,82.78125 65.327576,94.411129 51.897161,94.68314 42.092451,102.196 36.849969,106.21305 34.64395,113.39543 34.64395,120 c 0,6.60457 2.745464,13.167 7.448501,17.804 4.703036,4.637 11.303063,7.22901 17.907549,7.196 12.083182,-0.0604 18.629027,-3.58643 26.5625,-7.40625 2.811142,-1.35351 5.625726,-2.9697 8.4375,-4.5625 L 95,260 60,260 c -6.603908,-0.0934 -13.204513,2.559 -17.907549,7.196 -4.703037,4.637 -7.448501,11.19943 -7.448501,17.804 0,6.60457 2.745464,13.167 7.448501,17.804 C 46.795487,307.441 53.396092,310.0934 60,310 z" />
    <path id="cloock-type-2" d="m 20,285 0,5 c -0.06904,9.30944 5.538839,18.43338 13.876018,22.57608 C 42.213197,316.71877 52.872025,315.67767 60.25,310 L 200,310 c 6.54481,-6.5e-4 13.04906,-2.69519 17.67694,-7.32306 C 222.30481,298.04906 224.99935,291.54481 225,285 l 0,-5 c 0.0917,-6.66483 -2.61549,-13.3241 -7.33159,-18.03439 -4.7161,-4.71029 -11.37869,-7.4093 -18.04341,-7.30936 -5.42193,0.0846 -10.79954,1.9924 -15.0625,5.34375 l -69.84375,0 67.5625,-52.875 C 210.02253,185.40966 220,165 220,135 220,86.363053 174.31603,50 120,50 65.683966,50 20,86.363053 20,135 c -0.0934,6.60391 2.559001,13.20451 7.195999,17.90755 4.636997,4.70304 11.199433,7.4485 17.804001,7.4485 6.604568,0 13.167004,-2.74546 17.804001,-7.4485 C 67.440999,148.20451 70.093396,141.60391 70,135 c 0,-17.63721 15.950474,-35 50,-35 34.04953,0 50,17.36279 50,35 0,11.21304 -0.67047,18.76892 -18.53125,32.75 l -111.875,87.5625 C 30.03841,262.79129 20.169003,273.37108 20,285 z"/>
    <path id="cloock-type-3" d="M 77.367225,107.94178 C 87.244111,98.745082 98.594096,95 120,95 c 17.87037,0 27.32828,4.66237 32.53125,9.40625 C 157.73422,109.15013 160,114.81061 160,122.5 160,142.17949 146.66667,150 135,150 l -15,0 c -13.80712,0 -25,11.19288 -25,25 0,13.80712 11.19288,25 25,25 l 15,0 c 23.09524,0 35,12.82051 35,32.5 0,13.19444 -2.83808,18.23858 -9.0625,23.0625 C 154.71308,260.38642 141.66667,265 120,265 90.757189,265 72.689512,260.84564 59.364526,250.00666 55.822202,247.12522 49.800197,244.90928 45,245 c -13.804655,0.26088 -25.245296,11.19506 -25,25 0.142604,8.02556 3.528057,15.35126 8.739526,19.50666 C 52.993221,308.84553 77.019455,315 120,315 c 28.33333,0 52.78692,-5.38642 71.5625,-19.9375 C 210.33808,280.51142 220,256.80556 220,232.5 c 0,-22.66026 -9.51935,-43.29007 -24.90625,-58.25 -0.81204,-0.78951 -1.65584,-1.55022 -2.5,-2.28125 C 203.28199,158.87902 210,141.89597 210,122.5 210,102.68939 202.26578,82.09987 186.21875,67.46875 170.17172,52.83763 147.12963,45 120,45 85.799302,45 60.861585,55.451092 43.679725,71.004284 38.569117,75.630457 34.95344,82.909306 35,90 c 0.09066,13.80682 11.193353,24.88573 25,25 7.053637,0.0584 12.238386,-2.28259 17.367225,-7.05822 z" />
    <path id="cloock-type-4" d="m 165,50 c -6.87802,-0.004 -13.70632,2.980443 -18.375,8.03125 l -120,130 C 22.410939,192.59949 19.996,198.78493 20,205 l 0,10 c 6.54e-4,6.54481 2.684623,13.05962 7.3125,17.6875 C 31.940376,237.31537 38.455194,239.99935 45,240 l 100,0 0,20 -20,0 c -13.80712,0 -25,11.19288 -25,25 0,13.80712 11.19288,25 25,25 l 70,0 c 13.80712,0 25,-11.19288 25,-25 0,-13.80712 -11.19288,-25 -25,-25 l 0,-20 c 13.80712,0 25,-11.19288 25,-25 0,-13.80712 -11.19288,-25 -25,-25 L 195,75 C 194.99935,68.455194 192.31537,61.940376 187.6875,57.3125 183.05962,52.684623 176.54481,50.000654 170,50 l -5,0 z M 145,133.53125 145,190 92.875,190 145,133.53125 z" />
    <path id="cloock-type-5" d="m 85,105 0,30 35,0 c 25.55952,0 49.61513,7.27467 68.34375,21.78125 C 207.07237,171.28783 220,194.25594 220,220 220,272.5 176.11111,315 120,315 79.862348,315 49.526828,307.80999 28.21875,288.53125 23.268712,284.1654 20.119674,276.59919 20,270 c -0.250346,-13.80485 11.194214,-24.80817 25,-25 6.599629,-0.0917 11.947369,1.97463 16.78125,6.46875 C 69.950118,258.85963 85.843228,265 120,265 c 33.88889,0 50,-17.5 50,-45 0,-10.15445 -3.86521,-17.16871 -12.28125,-23.6875 C 149.30271,189.79371 135.86184,185 120,185 l -60,0 C 46.192881,185 35,173.80712 35,160 l 0,-85 c 0,-13.807119 11.193003,-24.942008 25,-25 5.672494,-0.02383 10.977931,1.494291 15.4375,5 L 180,55 c 13.80712,0 25,11.192881 25,25 0,13.807119 -11.19288,25 -25,25 z" />
    <path id="cloock-type-6" d="M 170.26887,108.03538 C 173.16888,109.49695 176.54822,110 180,110 c 13.80712,0 25,-11.19288 25,-25 0,-6.90356 -2.79675,-13.155031 -7.31741,-17.682585 C 189.29641,58.918471 182.07097,56.081151 170.90625,52.09375 159.74153,48.106349 145.83333,45 130,45 101.30724,45 72.485095,56.963665 52.0625,80.5 31.639905,104.03633 20,137.96475 20,180 c 0,42.18417 5.158364,73.67459 23.125,97.15625 C 61.934435,301.73941 90.717249,315 120,315 c 30.45346,0 56.64196,-10.60293 74.15625,-28.59375 C 211.67054,268.41543 220,244.22807 220,220 c 0,-47.77224 -44.65601,-85 -100,-85 -15.54132,0 -30.680504,2.29312 -44.96875,6.78125 C 78.647531,129.50792 83.862066,120.10767 89.8125,113.25 100.84421,100.53633 114.50998,95 130,95 c 9.16667,0 17.94837,1.419565 24.09375,4.15625 5.61869,2.50214 10.68261,6.11097 16.17512,8.87913 z M 120,185 c 35.04187,0 50,17.823 50,35 0,13.05115 -4.17054,23.84187 -11.65625,31.53125 C 150.85804,259.22063 139.54654,265 120,265 105.09997,265 92.341891,259.19493 82.84375,246.78125 77.437033,239.71489 72.310159,224.29404 70.625,198.40625 84.155091,189.42571 100.13393,185 120,185 z" />
    <path id="cloock-type-7" d="M 112.67767,302.67767 C 108.1858,307.23379 101.90356,310 95,310 81.19288,310 70.104898,298.80672 70,285 c -0.03027,-3.98389 0.954756,-7.84701 2.625,-11.1875 L 157.03125,105 45,105 C 31.192881,105 20,93.807119 20,80 20,66.192881 31.192881,55 45,55 l 134.59375,0 c 4.25471,-3.345094 9.99408,-4.974283 15.40625,-5 13.80696,-0.06561 25,11.192881 25,25 l 0,10 c 0,4 -0.93827,7.814033 -2.625,11.1875 l -100,200 c -1.22974,2.45948 -2.72013,4.48469 -4.69733,6.49017 z" />
    <path id="cloock-type-8" d="M 120,45 C 92.87037,45 69.828285,52.83763 53.78125,67.46875 37.734215,82.09987 30,102.68939 30,122.5 c 0,19.39597 6.718009,36.37902 17.40625,49.46875 -0.844161,0.73103 -1.687961,1.49174 -2.5,2.28125 C 29.519345,189.20993 20,209.83974 20,232.5 c 0,24.30556 9.661915,48.01142 28.4375,62.5625 C 67.213085,309.61358 91.666667,315 120,315 c 28.33333,0 52.78692,-5.38642 71.5625,-19.9375 C 210.33808,280.51142 220,256.80556 220,232.5 c 0,-22.66026 -9.51935,-43.29007 -24.90625,-58.25 -0.81204,-0.78951 -1.65584,-1.55022 -2.5,-2.28125 C 203.28199,158.87902 210,141.89597 210,122.5 210,102.68939 202.26578,82.09987 186.21875,67.46875 170.17172,52.83763 147.12963,45 120,45 z m 0,50 c 17.87037,0 27.32828,4.66237 32.53125,9.40625 C 157.73422,109.15013 160,114.81061 160,122.5 160,142.17949 146.66667,150 135,150 l -30,0 c -11.666667,0 -25,-7.82051 -25,-27.5 0,-7.68939 2.265785,-13.34987 7.46875,-18.09375 C 92.671715,99.66237 102.12963,95 120,95 z m -15,105 30,0 c 23.09524,0 35,12.82051 35,32.5 0,13.19444 -2.83808,18.23858 -9.0625,23.0625 C 154.71308,260.38642 141.66667,265 120,265 98.333333,265 85.286915,260.38642 79.0625,255.5625 72.838085,250.73858 70,245.69444 70,232.5 70,212.82051 81.904762,200 105,200 z" />
    <path id="cloock-type-9" d="M 120,45 C 66.869108,45 20,83.511872 20,135 c 0,23.45238 8.914918,45.79638 25.34375,61.3125 C 61.772582,211.82862 84.791667,220 110,220 c 7.20927,0 14.63298,-0.54767 22.03125,-1.8125 l -16.1875,60.34375 C 115.28325,280.62068 115.0134,282.93053 115,285 c -0.0893,13.80683 11.19288,25 25,25 6.90356,0 13.15432,-2.79748 17.6875,-7.3125 3.04334,-3.03114 5.32047,-6.93881 6.46875,-11.21875 l 55,-205 C 219.71973,84.36851 219.9617,82.174178 220,80 220.24322,66.195023 208.80712,55 195,55 190,55 183.61987,56.870136 179.59375,60.0625 164.01473,51.389089 143.92733,45 120,45 z m 0,50 c 16.43594,0 32.76471,7.80884 41.5,13.375 l -12.8125,47.71875 c -0.65438,0.55075 -1.28048,1.13511 -1.875,1.75 C 139.72338,165.35212 126.18403,170 110,170 95.208333,170 85.727418,165.67138 79.65625,159.9375 73.585082,154.20362 70,146.54762 70,135 70,114.69111 90.28818,95 120,95 z" />
    <path id="cloock-script-0" d="m 148.21875,20 c -18.15958,0 -35.6197,2.423127 -45.65625,9.5625 C 96.892626,33.595694 91.247472,44.117777 87.375,54.09375 80.182134,60.666253 73.213092,68.016052 67.28125,75.125 42.966411,104.26484 27.361298,138.25184 20,180 12.638702,221.74816 15.361782,259.76641 26.875,288.90625 38.388218,318.04609 60.232158,340 91.78125,340 123.33034,340 152.96054,318.04609 174.75,288.90625 196.53946,259.76641 212.6387,221.74816 220,180 227.3613,138.25184 224.63822,100.23359 213.125,71.09375 201.61179,41.953908 179.76784,20 148.21875,20 z m -21.3125,45.875 c 1.77164,0.0065 3.48623,0.0798 5.15625,0.1875 15.66415,1.010152 32.53875,8.967973 40.84375,27.40625 10.68041,23.71202 13.9977,52.43812 11.625,87.53125 -2.8104,41.56679 -12.80107,79.15224 -26.375,101.1875 -14.10008,22.8894 -32.02843,32.46875 -47.1875,32.46875 -15.159076,0 -34.369164,-13.96203 -45.90625,-45.59375 -7.932307,-21.74834 -14.08764,-56.03955 -11.123415,-93.10898 3.163224,-39.55804 13.236613,-70.66173 29.421479,-96.119923 2.670382,-4.200413 6.022196,-6.393106 9.233186,-7.771097 12.40972,-4.499458 24.16111,-6.224967 34.3125,-6.1875 z" />
    <path id="cloock-script-1" d="M 155.0,20.0 C 119.11851,66.825098 85.901173,101.62532 45.0,135.0 l 0,15 c 37.576144,-29.39339 67.0203,-54.142138 95.50508,-80 -20.84179,49.25803 -46.520404,133.07393 -60.505081,208.38325 -1.718644,9.25512 0.141174,19.08426 4.908232,25.75854 11.772963,16.48312 32.808229,32.53684 55.415859,42.42603 -3.65633,-13.34432 -5.93689,-28.26413 -5.33583,-36.36621 6.69307,-90.22062 22.35506,-182.37196 42.88991,-242.825966 C 186.05971,43.289415 160.33034,13.043943 155.0,20.0 z" />
    <path id="cloock-script-2" d="M 165,20 C 152.40224,20 132.31653,24.610083 115,35 90,50 71.969542,70.050763 60,90 46.321691,112.79718 45.261405,138.75813 59.03125,148.84375 62.216525,152.20669 68.44019,155 75.34375,155 c 13.807119,0 25,-11.19288 25,-25 0,-13.80712 -11.192881,-25 -25,-25 C 64.986607,105 74.002705,93.147963 87.90625,81.21875 96.107783,74.181852 103.45854,69.471154 115,65 c 30.09546,-11.658957 50,0 50,30 0,45 -20,85 -85,155 -6.623407,7.1329 -14.017776,14.04246 -21.125,20.15625 C 55.931409,270.06306 52.970529,270 50,270 c -50.99019514,0 -43.9582807,50.97219 -5,25 13.319303,-8.87954 35.825875,-1.50447 55,10 25,15 60,30 80,30 15,0 30.50508,-29.49492 30,-50 -10,5 -19.54569,5 -25,5 C 159.54293,290 126.08373,275.61163 76.84375,271.25 95.226318,253.8208 122.5418,226.51547 155,190 195,145 220,105 220,60 220,35 205,20 165,20 z" />
    <path id="cloock-script-3" d="M 104.28571,318.92857 C 136.42857,300.0 160.0,255.0 155.0,215.0 c -5.11408,-40.91267 -40,-45 -40,-45 0,0 -15,5 -30,5 -18.476199,0 -19.591818,-20.06803 10,-25 10.18858,-1.6981 22.10557,-2.24209 34.1875,-1.4375 C 155.33446,124.96997 170.0,95.666238 170.0,70.0 170.0,40.0 144.77845,29.463005 120.0,40.0 114.09338,42.511779 109.37911,48.953345 112.6875,52.3125 117.17703,56.870924 120.0,63.09644 120.0,70.0 120.0,83.807119 108.80712,95.0 95.0,95.0 81.192881,95.0 70.0,85.0 70.0,67.5 70.0,35.0 120.0,20.0 165.0,20.0 c 40.31129,0 69.10497,26.790054 50,65 -12.34329,24.68658 -41.6145,49.39032 -68.3125,65.71875 C 170.0,155.0 184.22749,161.02291 195.0,170.0 c 30,25 19.13412,74.27602 -10,110 -30,36.78571 -65.71429,60 -105,60 C 55.497642,340.0 39.686185,332.48205 28.522206,319.05045 22.914588,312.30381 20.0,302.5147 20.0,287.5 20.0,272.31217 32.312169,260.0 47.5,260.0 c 15.187831,0 27.5,12.31217 27.5,27.5 0,10.80821 -6.030335,16.71576 -11.527282,20.79415 -9.507689,7.05411 17.170132,24.55744 40.812992,10.63442 z" />
    <path id="cloock-script-4" d="m 191.5,20.25 c -0.6151,-0.02724 -1.20726,0.0541 -1.71875,0.25 -24.79079,9.494924 -56.84701,32.251993 -81.1875,53.71875 C 55.022824,121.46488 20,165 20,185 c 0,7.07107 5,30 10,35 3.497269,3.49727 46.132305,11.89796 93.6875,16.625 -3.32667,14.21813 -6.32752,28.36321 -8.90625,42.25 -1.71864,9.25512 0.13919,19.10697 4.90625,25.78125 11.77296,16.48312 32.82987,32.51706 55.4375,42.40625 -3.65633,-13.34432 -5.94481,-28.24167 -5.34375,-36.34375 1.75548,-23.66341 4.11568,-47.45896 7.03125,-70.78125 C 179.56532,239.9872 182.30865,240 185,240 l 25,0 c 0,-5 -6.78006,-28.63001 -15,-30 -4.44141,-0.74024 -9.13828,-1.53389 -13.75,-2.3125 C 189.24189,154.30625 200.01774,105.08241 212.65625,67.875 220.32644,45.29416 200.72651,20.658537 191.5,20.25 z M 175.8125,61.21875 C 179.52334,61.173308 181.15661,62.455448 180,65 163.64823,100.9739 146.78819,149.19681 133.15625,199.3125 91.138893,191.71233 54.071875,184.07187 50,180 c -5,-5 10,-40 55,-80 29.79401,-26.483566 59.67997,-38.644925 70.8125,-38.78125 z" />
    <path id="cloock-script-5" d="m 225,20 c 0,0 -10,35 -45,50 -26.79745,11.484621 -55,5 -65,5 -5,0 -26.060915,47.02031 -20,60 4.230989,9.06083 27.41503,10.20871 46.63674,13.69844 23.32113,4.234 42.59075,12.32447 53.36326,21.30156 30,25 19.13412,74.27602 -10,110 -30,36.78571 -65.71429,60 -105,60 C 55.497642,340 39.686185,332.48205 28.522206,319.05045 22.914588,312.30381 20,302.5147 20,287.5 20,272.31217 32.312169,260 47.5,260 c 15.187831,0 27.5,12.31217 27.5,27.5 0,10.80821 -6.030335,16.71576 -11.527282,20.79415 -9.507689,7.05411 17.170132,24.55744 40.812992,10.63442 C 136.42857,300 160,255 155,215 151.5721,187.57675 130.15559,174.18691 115,170 92.087138,163.67005 78.103364,160.21231 75.505076,152.07107 70.790263,137.2981 85,60 110,30 c 13.48477,8.484771 30.11583,11.860521 45,10 40,-5 60,-25 60,-25 z" />
    <path id="cloock-script-6" d="m 184.09375,20 c -40,0 -71.19746,18.848911 -96.5625,46.375 C 60.419412,95.796698 36.455048,138.25184 29.09375,180 c -7.361298,41.74816 -4.638218,79.76641 6.875,108.90625 C 47.481968,318.04609 69.325911,340 100.875,340 c 31.54909,0 63.71054,-18.42266 85.5,-47.5625 C 203.20414,269.93128 214.03125,235 214.03125,205 c 0,-30.0118 -15.09856,-57.19381 -55,-60 -32.71373,-2.30069 -63.896702,9.58169 -88.09375,32.90625 0.203272,-1.65375 0.395264,-3.30506 0.625,-4.96875 C 76.746029,135.39977 87.010876,98.758633 106.875,73 c 12.78702,-16.581465 29.80974,-26.598466 43.84375,-29.90625 10.10722,-2.382248 18.42177,3.71429 18.375,11.90625 -0.0788,13.806894 11.19288,25 25,25 13.80712,0 25,-11.192881 25,-25 0,-20.37141 -12.17259,-35 -35,-35 z m -66.1875,156.75 c 7.77586,0.025 14.87965,1.48586 20.875,3.84375 25.55584,10.05076 43.32536,50.85945 26.95536,97.58036 -9.49526,27.10001 -28.37218,38.625 -43.53125,38.625 -14.14892,0 -33.470621,-18.12599 -46.01786,-50.76786 -6.500108,-16.91015 -8.760363,-41.81829 -7,-69.5 16.641945,-14.56928 33.88612,-19.82886 48.71875,-19.78125 z" />
    <path id="cloock-script-7" d="M 200,25 C 190,45 110,15 70,45 44.387503,64.209373 35,95 25,155 l 10,10 c 0,0 2.942418,-32.35604 10,-50 10,-25 35,-40 75,-40 30.7386,0 75,-30 75,-30 -55,75 -138.504189,210.0192 -145,245 -3.673105,19.78016 -5.799606,44.20039 0,50 5,5 45,-10 65,-25 -5,0 -10,-10 -10,-20 0,-10 0.8342,-24.96724 5,-45 10.47804,-50.38746 64.39175,-145.36832 110,-220 9.40057,-15.382757 -10,-25 -20,-5 z" />
    <path id="cloock-script-8" d="m 130,20 c -50,0 -80,30 -80,70 0,29.89847 16.456711,55.0197 45,75 1.875,1.3125 3.691924,2.625 5.46875,3.9375 C 57.768055,209.26648 20,240.24242 20,275 c 0,40 20,65 70,65 40,0 115,-60 115,-110 0,-38.06268 -18.85565,-59.96618 -60.15625,-85.53125 C 170,120 195,95 204.09375,77.125 210,75 220,70.121884 220,55 220,35 195,20 130,20 z m 0,15 c 20,0 40,5 45,20 6.88333,20.649978 0,40 -42.53125,82.0625 C 128.48321,134.75135 124.06371,132.8446 120,130 70,95 80,35 130,35 z M 111.78125,177.84375 C 141.68787,203.05802 150,240 140,270 c -10,30 -30,50 -50,50 -20,0 -30,-10 -30,-30 0,-20 10,-60 50,-110 0.59196,-0.73995 1.18939,-1.43362 1.78125,-2.15625 z" />
    <path id="cloock-script-9" d="m 59.998355,340 c 40,0 71.197455,-18.84891 96.562495,-46.375 27.11184,-29.4217 51.07621,-71.87684 58.4375,-113.625 7.3613,-41.74816 4.63822,-79.76641 -6.875,-108.90625 C 196.61014,41.95391 174.76619,20 143.2171,20 111.66801,20 79.506565,38.42266 57.717105,67.5625 40.887965,90.06872 30.060855,125 30.060855,155 c 0,30.0118 15.09856,57.19381 55,60 32.713725,2.30069 63.896705,-9.58169 88.093745,-32.90625 -0.20327,1.65375 -0.39526,3.30506 -0.625,4.96875 -5.18352,37.53773 -15.44837,74.17887 -35.3125,99.9375 -12.78702,16.58146 -29.80974,26.59847 -43.843745,29.90625 -10.10722,2.38225 -18.42177,-3.71429 -18.375,-11.90625 0.0788,-13.80689 -11.19288,-25 -25,-25 -13.80712,0 -25,11.19288 -25,25 0,20.37141 12.17259,35 35,35 z M 126.18585,183.25 c -7.77586,-0.025 -14.87965,-1.48586 -20.875,-3.84375 C 79.755015,169.35549 61.972105,128.53341 78.342105,81.8125 c 9.49526,-27.10001 28.372175,-38.625 43.531245,-38.625 14.14892,0 33.48402,18.13938 46.03125,50.78125 6.50011,16.91015 8.76037,41.81829 7,69.5 -16.64194,14.56928 -33.88612,19.82886 -48.71875,19.78125 z" />
  </defs>
  <g>
    <use xlink:href="#cloock-black-0"/>
    <use x="240" xlink:href="#cloock-black-1"/>
    <use x="480" xlink:href="#cloock-black-2"/>
    <use x="720" xlink:href="#cloock-black-3"/>
    <use x="960" xlink:href="#cloock-black-4"/>
    <use x="1200" xlink:href="#cloock-black-5"/>
    <use x="1440" xlink:href="#cloock-black-6"/>
    <use x="1680" xlink:href="#cloock-black-7"/>
    <use x="1920" xlink:href="#cloock-black-8"/>
    <use x="2160" xlink:href="#cloock-black-9"/>
  </g>
  <g transform="translate(0,360)">
    <use xlink:href="#cloock-cloock-0"/>
    <use x="240" xlink:href="#cloock-cloock-1"/>
    <use x="480" xlink:href="#cloock-cloock-2"/>
    <use x="720" xlink:href="#cloock-cloock-3"/>
    <use x="960" xlink:href="#cloock-cloock-4"/>
    <use x="1200" xlink:href="#cloock-cloock-5"/>
    <use x="1440" xlink:href="#cloock-cloock-6"/>
    <use x="1680" xlink:href="#cloock-cloock-7"/>
    <use x="1920" xlink:href="#cloock-cloock-8"/>
    <use x="2160" xlink:href="#cloock-cloock-9"/>
  </g>
  <g transform="translate(0,720)">
    <use xlink:href="#cloock-type-0"/>
    <use x="240" xlink:href="#cloock-type-1"/>
    <use x="480" xlink:href="#cloock-type-2"/>
    <use x="720" xlink:href="#cloock-type-3"/>
    <use x="960" xlink:href="#cloock-type-4"/>
    <use x="1200" xlink:href="#cloock-type-5"/>
    <use x="1440" xlink:href="#cloock-type-6"/>
    <use x="1680" xlink:href="#cloock-type-7"/>
    <use x="1920" xlink:href="#cloock-type-8"/>
    <use x="2160" xlink:href="#cloock-type-9"/>
  </g>
  <g transform="translate(0,1080)">
    <use xlink:href="#cloock-roman-0"/>
    <use x="240" xlink:href="#cloock-roman-1"/>
    <use x="480" xlink:href="#cloock-roman-2"/>
    <use x="720" xlink:href="#cloock-roman-3"/>
    <use x="960" xlink:href="#cloock-roman-4"/>
    <use x="1200" xlink:href="#cloock-roman-5"/>
    <use x="1440" xlink:href="#cloock-roman-6"/>
    <use x="1680" xlink:href="#cloock-roman-7"/>
    <use x="1920" xlink:href="#cloock-roman-8"/>
    <use x="2160" xlink:href="#cloock-roman-9"/>
  </g>
  <g transform="translate(0,1440)">
    <use xlink:href="#cloock-script-0"/>
    <use x="240" xlink:href="#cloock-script-1"/>
    <use x="480" xlink:href="#cloock-script-2"/>
    <use x="720" xlink:href="#cloock-script-3"/>
    <use x="960" xlink:href="#cloock-script-4"/>
    <use x="1200" xlink:href="#cloock-script-5"/>
    <use x="1440" xlink:href="#cloock-script-6"/>
    <use x="1680" xlink:href="#cloock-script-7"/>
    <use x="1920" xlink:href="#cloock-script-8"/>
    <use x="2160" xlink:href="#cloock-script-9"/>
  </g>
</svg>
