<svg xmlns="http://www.w3.org/2000/svg" version="1.1" width="950" height="700" viewBox="0 0 950 700">
  <defs>
    <path id="path864" d="M 298,374 L 315,344 328,335 339,333 346,323 346,305 353,299 362,311 378,313 400,324 412,339 383,362 355,373 319,377 Z" fill="hsl(0,100%,35%)" />
    <path id="path842" d="M 218,332 L 195,338 180,339 167,347 160,361 170,366 157,374 149,392 166,395 166,406 182,404 193,395 202,381 213,385 216,393 227,381 226,368 224,363 225,345 Z" fill="hsl(0,100%,42%)" />
    <path id="path872" d="M 423,313 L 442,303 467,302 464,324 450,340 447,365 434,386 423,391 420,382 409,369 408,356 411,341 401,348 397,361 389,343 393,326 408,314 Z" fill="hsl(0,100%,54%)" />
    <path id="path826" d="M 281,288 L 279,306 285,317 297,318 292,330 V 338 L 306,337 320,344 292,350 270,362 262,376 259,363 255,355 247,366 235,366 227,372 228,350 234,328 245,325 252,321 V 312 L 241,305 247,291 260,283 264,294 273,288 Z" fill="hsl(0,100%,28%)" />
    <path id="path828" d="M 161,121 L 189,72 211,61 212,71 232,63 249,47 256,33 273,17 256,19 257,-2 245,2 236,11 215,40 209,24 198,43 188,22 173,43 168,60 166,79 173,75 165,101 Z" fill="hsl(0,100%,48%)"/>
    <path id="path830" d="M 273,193 L 272,178 269,158 276,145 287,134 272,136 272,118 277,105 285,103 296,108 300,114 312,109 319,110 330,105 341,105 340,116 335,125 328,134 321,147 317,159 306,173 V 155 L 306,147 300,152 297,164 290,181 Z" fill="hsl(0,100%,48%)" />
    <path id="path832" d="M 173,128 L 177,109 184,94 197,84 221,62 225,52 237,47 252,48 259,60 261,70 255,90 240,111 236,128 227,132 V 116 L 233,100 240,92 238,83 238,77 224,88 208,100 206,111 197,125 184,131 Z" fill="hsl(0,100%,48%)" />
    <path id="path834" d="M 218,-15 L 192,-15 176,-2 162,3 156,21 146,56 134,67 132,84 133,110 144,100 156,89 161,77 163,62 178,46 195,49 207,47 211,54 207,69 209,81 217,89 H 233 L 244,84 246,78 236,75 225,50 224,36 227,22 215,30 213,10 216,-3 Z" fill="hsl(0,100%,35%)" />
    <path id="path836" d="M 425,-26 L 427,-12 424,-3 432,2 V 15 L 423,26 411,29 400,35 396,49 408,51 420,48 429,50 V 63 L 446,57 460,47 467,38 476,45 484,47 484,30 477,1 467,-14 447,-23 Z" fill="hsl(0,100%,62%)" />
    <path id="path838" d="M 289,247 L 277,257 282,267 289,274 286,284 283,302 285,310 296,323 299,335 321,326 338,314 344,305 359,302 379,299 379,283 390,268 377,264 385,250 379,244 388,231 383,222 373,211 360,227 340,248 317,257 301,254 Z" fill="hsl(0,100%,35%)" />
    <path id="path840" d="M 429,246 L 413,245 401,252 394,268 385,279 382,292 380,311 398,308 401,315 419,304 429,290 440,282 443,265 443,252 Z" fill="hsl(0,100%,48%)" />
    <path id="path824" d="M 338,0 L 339,-31 351,-40 362,-59 380,-72 398,-75 410,-64 423,-49 428,-35 427,-13 418,-4 412,21 406,43 390,36 372,40 372,25 381,15 379,8 371,15 367,38 354,31 351,19 349,6 359,3 368,-7 368,-16 360,-21 349,-11 Z" fill="hsl(0,100%,62%)"/>
    <path id="path844" d="M 42,84 L 57,72 70,67 74,47 94,41 110,42 122,39 142,29 140,45 127,67 113,71 98,76 93,94 84,107 67,112 70,102 55,101 57,89 H 48 Z" fill="hsl(0,100%,35%)" />
    <path id="path846" d="M 105,36 L 118,7 131,-10 151,-21 V -9 L 162,-18 173,-23 183,-26 198,-30 198,-16 195,-1 182,18 171,31 170,18 154,27 153,12 138,20 121,34 Z" fill="hsl(0,100%,28%)" />
    <path id="path848" d="M 41,58 L 17,63 0,76 -18,92 -31,100 -20,108 -25,123 -32,134 -17,135 -10,160 -2,172 1,160 7,153 10,168 13,174 20,156 29,138 39,128 34,110 39,91 43,72 Z" fill="hsl(0,100%,28%)" />
    <path id="path852" d="M 47,362 L 52,330 60,315 83,301 117,294 132,300 140,310 149,309 149,328 142,339 116,338 101,352 85,361 H 75 L 80,348 69,351 Z" fill="hsl(0,100%,48%)" />
    <path id="path854" d="M 162,99 L 146,98 132,107 127,124 123,149 134,146 120,171 116,187 110,196 129,191 H 147 L 162,181 182,157 185,128 165,129 148,135 152,118 Z" fill="hsl(0,100%,35%)" />
    <path id="path856" d="M 348,134 L 347,114 350,99 354,78 348,73 338,73 345,54 360,43 382,42 397,48 408,51 399,71 393,84 371,102 H 389 L 409,97 393,109 375,111 362,124 356,130 Z" fill="hsl(0,100%,48%)"/>
    <path id="path858" d="M 123,347 L 146,329 149,317 145,290 172,285 189,272 183,251 193,232 209,250 246,251 266,266 271,282 251,277 234,278 241,298 239,317 216,320 193,333 160,339 Z" fill="hsl(0,100%,62%)"/>
    <path id="path862" d="M 323,178 L 330,161 322,155 332,142 347,136 364,140 368,128 379,126 390,115 402,118 411,114 412,137 406,160 401,178 393,167 379,169 376,180 366,186 374,190 373,199 358,201 340,192 Z" fill="hsl(0,100%,42%)" />
    <path id="path866" d="M 2,266 L 3,241 9,225 -8,227 -4,207 1,189 3,178 13,182 19,170 33,174 36,159 45,149 55,141 50,161 51,178 53,200 45,217 36,242 24,253 Z" fill="hsl(0,100%,48%)" />
    <path id="path868" d="M 265,84 L 280,73 270,60 270,47 289,43 303,47 319,37 330,34 338,45 337,55 345,58 346,79 341,105 335,124 324,140 319,109 306,116 294,120 293,105 293,91 281,94 269,92 Z" fill="hsl(0,100%,28%)" />
    <path id="path870" d="M 162,246 L 188,226 203,204 211,182 228,168 251,168 243,188 262,182 264,201 248,224 217,233 188,247 Z" fill="hsl(0,100%,54%)" />
    <path id="path874" d="M 372,215 L 378,193 398,175 403,167 386,160 365,156 378,141 394,131 418,132 441,143 458,169 460,202 458,244 445,270 432,281 413,289 423,261 428,240 427,228 409,237 396,246 396,228 400,210 387,215 Z" fill="hsl(0,100%,42%)" />
    <path id="path876" d="M 11,71 L 10,59 H -5 V 38 L 3,20 7,2 19,-13 29,-19 32,-5 57,-10 69,-1 98,5 106,4 101,28 107,49 98,71 83,78 81,56 64,71 50,54 28,71 Z" fill="hsl(0,100%,42%)" />
    <path id="path878" d="M 356,-8 L 330,-2 308,-12 291,-9 276,12 261,41 291,39 305,44 321,66 323,41 329,30 333,45 344,57 345,34 354,20 349,12 Z" fill="hsl(0,100%,35%)" />
    <path id="path880" d="M 128,88 L 135,120 131,138 115,145 101,163 87,194 77,166 62,180 61,152 56,135 37,146 47,121 64,100 88,88 Z" fill="hsl(0,100%,48%)" />
    <path id="path882" d="M 247,86 L 229,97 214,120 186,149 171,185 205,170 185,199 218,183 235,168 238,188 243,200 255,176 268,153 V 124 L 269,95 246,109 Z" fill="hsl(0,100%,28%)" />
    <path id="path884" d="M 449,137 L 454,112 470,89 486,63 465,58 448,76 429,74 413,64 402,75 414,83 396,89 391,101 409,103 V 128 L 427,152 432,129 Z" fill="hsl(0,100%,48%)" />
    <path id="path886" d="M -51,306 L -38,277 -25,257 -6,243 11,260 23,249 33,264 45,252 49,240 56,255 53,272 64,278 79,274 V 303 L 62,312 59,334 36,349 15,339 5,321 -8,317 -21,296 -38,301 Z" fill="hsl(0,100%,35%)" />
    <path id="path860" d="M 70,189 L 69,202 73,213 79,216 86,202 101,191 111,186 99,206 96,220 106,222 116,214 125,200 136,209 140,218 150,217 161,207 170,190 176,208 191,216 189,234 176,242 170,257 154,277 138,284 123,293 114,281 94,289 92,264 87,249 73,267 66,253 55,237 53,221 58,200 Z" fill="hsl(0,100%,28%)" />
    <path id="path850" d="M 324,188 L 304,182 294,173 282,183 275,196 279,208 270,206 256,217 253,238 249,254 264,255 281,254 294,248 305,240 304,251 308,259 312,246 322,235 329,224 339,210 340,199 331,189 Z" fill="hsl(0,100%,35%)" />
  </defs>
  <use href="#path864" /><use href="#path842" /><use href="#path872" /><use href="#path826" /><use href="#path828" /><use href="#path830" /><use href="#path832" /><use href="#path834" /><use href="#path836" /><use href="#path838" /><use href="#path840" /><use href="#path824" /><use href="#path844" /><use href="#path846" /><use href="#path848" /><use href="#path852" /><use href="#path854" /><use href="#path856" /><use href="#path858" /><use href="#path862" /><use href="#path866" /><use href="#path868" /><use href="#path870" /><use href="#path874" /><use href="#path876" /><use href="#path878" /><use href="#path880" /><use href="#path882" /><use href="#path884" /><use href="#path886" /><use href="#path860" /><use href="#path850" /><use href="#path864" x="380" y="21" /><use href="#path872" x="64" y="18" /><use href="#path826" x="349" y="-113" /><use href="#path828" x="379" y="-42" /><use href="#path830" x="523" y="6" /><use href="#path832" x="388" y="-59" /><use href="#path834" x="495" y="2" /><use href="#path836" x="363" y="213" /><use href="#path838" x="614" y="-215" /><use href="#path840" x="443" y="-92" /><use href="#path824" x="241" y="380" /><use href="#path844" x="673" y="26" /><use href="#path846" x="340" y="299" /><use href="#path848" x="750" y="50" /><use href="#path852" x="716" y="-23" /><use href="#path854" x="767" y="-10" /><use href="#path856" x="324" y="15" /><use href="#path858" x="516" y="-51" /><use href="#path866" x="539" y="4" /><use href="#path868" x="547" y="10" /><use href="#path870" x="604" y="-182" /><use href="#path874" x="238" y="107" /><use href="#path876" x="454" y="115" /><use href="#path878" x="605" y="-4" /><use href="#path880" x="427" y="-131" /><use href="#path882" x="259" y="94" /><use href="#path884" x="327" y="-84" /><use href="#path886" x="637" y="-141" /><use href="#path860" x="431" y="-130" /><use href="#path850" x="276" y="82" /><use href="#path842" x="361" y="5" /><use href="#path862" x="361" y="154" /><use href="#path874" x="173" y="457" /><use href="#path824" x="-286" y="480" /><use href="#path826" x="-123" y="220" /><use href="#path868" x="-112" y="434" /><use href="#path838" x="-341" y="187" /><use href="#path874" x="-186" y="267" /><use href="#path858" x="204" y="121" /><use href="#path884" x="97" y="466" /><use href="#path846" x="379" y="409" /><use href="#path850" x="288" y="240" /><use href="#path856" x="447" y="433" /><use href="#path864" x="-70" y="217" /><use href="#path872" x="-22" y="146" /><use href="#path826" x="265" y="156" /><use href="#path832" x="645" y="470" /><use href="#path834" x="556" y="494" /><use href="#path836" x="-430" y="367" /><use href="#path838" x="592" y="67" /><use href="#path840" x="536" y="328" /><use href="#path824" x="451" y="396" /><use href="#path844" x="752" y="381" /><use href="#path848" x="659" y="412" /><use href="#path852" x="238" y="60" /><use href="#path854" x="317" y="321" /><use href="#path866" x="566" y="334" /><use href="#path868" x="587" y="420" /><use href="#path870" x="694" y="-22" /><use href="#path874" x="517" y="244" /><use href="#path876" x="280" y="473" /><use href="#path878" x="142" y="518" /><use href="#path880" x="561" y="315" /><use href="#path882" x="108" y="460" /><use href="#path886" x="878" y="-30" /><use href="#path860" x="599" y="174" /><use href="#path842" x="432" y="208" /><use href="#path862" x="402" y="415" /><use href="#path828" x="542" y="422" /><use href="#path830" x="103" y="444" /><use href="#path860" x="176" y="184" /><use href="#path844" x="6" y="292" /><use href="#path844" x="99" y="515" /><use href="#path828" x="-112" y="347" /><use href="#path880" x="65" y="311" /><use href="#path856" x="-292" y="487" /><use href="#path860" x="-124" y="286" /><use href="#path840" x="-394" y="310" /><use href="#path886" x="720" y="370" /><use href="#path860" x="-88" y="409" /><use href="#path854" x="126" y="558" /><use href="#path844" x="849" y="492" /><use href="#path826" x="615" y="293" /><use href="#path874" x="-291" y="471" /><use href="#path824" x="-166" y="669" /><use href="#path846" x="117" y="624" /><use href="#path858" x="753" y="366" /><use href="#path850" x="159" y="398" /><use href="#path880" x="381" y="558" /><use href="#path846" x="168" y="674" /><use href="#path836" x="219" y="676" /><use href="#path828" x="447" y="574" /><use href="#path870" x="171" y="460" /><use href="#path856" x="149" y="573" /><use href="#path830" x="508" y="499" /><use href="#path852" x="735" y="372" />
</svg>
