<?xml version="1.0" encoding="utf-8"?>
<svg
    version="1.1"
    xmlns="http://www.w3.org/2000/svg"
    xmlns:xlink="http://www.w3.org/1999/xlink"
    viewBox="0 0 2000 2000"
    preserveAspectRatio="xMidYMid slice">
  <title>Study filters and paintings: drain</title>
  <desc>
    Author: osmatsuda@gmail.com
    Licence: Creative Commons Attribution 4.0 International (CC BY 4.0)
    https://creativecommons.org/licenses/by/4.0/
  </desc>
  <defs>
    <!-- mudwave -->
    <linearGradient
	id="mudwave1" gradientUnits="objectBoundingBox"
	x1="0" y1="0" x2="0" y2="1">
      <stop offset="0" stop-color="#932"/>
      <stop offset=".25" stop-color="#321">
	<animate
	    id="mudwave1_1" attributeName="offset" values=".15;.18;.25;.32;.35;.33;.25;.17;.15"
	    begin="indefinite" repeatCount="indefinite" dur="4s" calcMode="linear"/>
	<set begin="0" end="mudwave1_1.begin" attributeName="offset" to=".15"/>
      </stop>
      <stop offset=".5" stop-color="#932"/>
      <stop offset=".75" stop-color="#321">
	<animate
	    id="mudwave1_2" attributeName="offset" values=".65;.68;.75;.82;.85;.83;.75;.67;.65"
	    begin="mudwave1_1.begin+2.8s" repeatCount="indefinite" dur="4s" calcMode="linear"/>
	<set begin="0" end="mudwave1_2.begin" attributeName="offset" to=".65"/>
      </stop>
      <stop offset="1" stop-color="#932"/>
    </linearGradient>
    <linearGradient
	id="mudwave2" gradientUnits="objectBoundingBox"
	x1="0" y1="0" x2="0" y2="1">
      <stop offset="0" stop-color="#932"/>
      <stop offset=".17" stop-color="#321">
	<animate
	    id="mudwave2_1" attributeName="offset" values=".07;.10;.17;.24;.27;.25;.17;.09;.07"
	    begin="mudwave1_1.begin+2s" repeatCount="indefinite" dur="4s" calcMode="linear"/>
	<set begin="0" end="mudwave2_1.begin" attributeName="offset" to=".07"/>
      </stop>
      <stop offset=".33" stop-color="#932"/>
      <stop offset=".5" stop-color="#321">
	<animate
	    id="mudwave2_2" attributeName="offset" values=".40;.43;.50;.57;.60;.58;.50;.42;.40"
	    begin="mudwave2_1.begin+2.8s" repeatCount="indefinite" dur="4s" calcMode="linear"/>
	<set begin="0" end="mudwave2_2.begin" attributeName="offset" to=".4"/>
      </stop>
      <stop offset=".66" stop-color="#932"/>
      <stop offset=".83" stop-color="#321">
	<animate
	    id="mudwave2_3" attributeName="offset" values=".73;.76;.83;.90;.93;.92;.83;.75;.73"
	    begin="mudwave2_2.begin+2.8s" repeatCount="indefinite" dur="4s" calcMode="linear"/>
	<set begin="0" end="mudwave2_3.begin" attributeName="offset" to=".73"/>
      </stop>
      <stop offset="1" stop-color="#932"/>
    </linearGradient>
    <!-- mist -->
    <radialGradient
	id="mistbase" gradientUnits="objectBoundingBox"
	cx="50%" cy="0%" r="100%" fx="40%" fy="0%" gradientTransform="scale(1 1.3)">
      <stop offset=".3" stop-color="black"/>
      <stop offset="1" stop-color="white"/>
    </radialGradient>
    <filter
	id="misty" filterUnits="objectBoundingBox"
	x="0%" y="0%" width="100%" height="100%">
      <feColorMatrix
	  in="SourceGraphic" result="s-alpha" type="matrix"
	  values="0 0 0 0 0  0 0 0 0 0  0 0 0 0 0  .3 .5 .2 0 0"/>
      <feTurbulence
	  result="fnoise" type="fractalNoise" baseFrequency=".008" numOctaves="2"/>
      <feColorMatrix
	  in="fnoise" result="fn-alpha" type="matrix"
	  values="0 0 0 0 0  0 0 0 0 0  0 0 0 0 0  .2 .4 .2 0 0"/>
      <feComposite in="s-alpha" in2="fn-alpha" operator="out"/>
    </filter>
  </defs>
  <!-- muddies -->
  <path
      fill="url(#mudwave1)"
      d="M 794,959 879,959 880,1171 879,1199 875,1217 869,1231 862,1239 860,1242 859,1301 857,1335 852,1355 846,1366 838,1373 831,1377 824,1380 821,1383 819,1388 819,1410 817,1421 813,1430 807,1437 800,1442 794,1444 Z M 680,960 687,960 687,1372 680,1369 680,1369 672,1362 666,1352 663,1339 661,1321 660,1300 660,1206 660,1202 657,1198 651,1193 645,1184 640,1174 637,1161 635,1140 635,1040 636,1022 639,1005 643,992 648,981 654,974 664,967 672,963 Z"/>
  <path
      fill="url(#mudwave2)"
      d="M 686,959 795,959 795,1444 787,1445 780,1446 776,1447 772,1451 770,1456 764,1466 755,1474 746,1479 736,1481 727,1479 719,1475 713,1468 708,1458 704,1445 701,1428 700,1410 699,1386 697,1381 694,1378 686,1372 Z"/>
  <!-- outline -->
  <path
      fill="#111"
      d="M 657,1198 651,1193 645,1184 640,1174 637,1161 635,1140 635,1040 636,1022 639,1005 643,992 648,981 654,974 664,967 672,963 680,960 680,948 682,921 686,895 691,873 701,843 710,820 721,802 733,786 747,772 761,761 777,754 788,751 800,750 897,750 905,738 918,720 933,704 951,691 968,680 985,672 999,666 1015,645 1034,625 1055,605 1077,591 1099,580 1121,573 1140,570 1159,570 1182,574 1209,584 1232,599 1255,617 1276,641 1298,672 1319,709 1336,752 1351,799 1361,847 1366,885 1369,915 1369,939 1369,982 1369,1006 1363,1061 1352,1115 1337,1165 1319,1211 1298,1249 1276,1279 1255,1303 1232,1322 1209,1336 1182,1346 1159,1350 1140,1350 1121,1347 1099,1340 1077,1329 1055,1315 1034,1296 1015,1276 999,1254 985,1248 961,1236 940,1222 922,1206 905,1182 897,1170 880,1171 879,1199 875,1217 869,1231 862,1239 860,1242 859,1301 857,1335 852,1355 846,1366 838,1373 831,1377 824,1380 821,1383 819,1388 819,1410 817,1421 813,1430 807,1437 800,1442 794,1444 787,1445 780,1446 776,1447 772,1451 770,1456 764,1466 755,1474 746,1479 736,1481 727,1479 719,1475 713,1468 708,1458 704,1445 701,1428 700,1410 699,1386 697,1381 694,1378 689,1375 680,1369 672,1362 666,1352 663,1339 661,1321 660,1300 660,1206 660,1202 Z
	 M 711,960 700,960 689,961 678,964 667,970 659,977 652,985 648,997 644,1011 642,1032 641,1054 641,1122 642,1145 643,1158 646,1167 649,1173 653,1177 657,1179 660,1179 663,1177 665,1175 666,1171 666,1165 664,1156 663,1143 662,1126 662,1065 665,1026 668,1004 673,989 681,978 688,971 695,968 706,965 715,964 731,964 725,965 717,968 708,974 700,983 694,995 689,1011 687,1033 687,1065 687,1183 688,1220 691,1246 694,1260 697,1267 700,1272 704,1275 708,1276 711,1277 715,1275 716,1272 717,1268 717,1262 716,1253 715,1240 714,1225 714,1061 715,1023 717,1003 721,991 725,982 731,975 738,970 748,966 760,964 776,964 789,964 783,965 776,968 767,973 758,983 751,997 748,1014 747,1034 746,1066 746,1177 747,1213 750,1240 753,1253 756,1260 759,1265 763,1268 768,1270 772,1270 776,1268 779,1265 780,1260 780,1254 779,1246 777,1233 777,1218 777,1061 777,1037 779,1015 782,999 787,986 794,976 803,970 814,966 827,965 840,964 852,964 845,966 837,971 829,978 820,992 816,1009 813,1036 813,1062 813,1128 813,1161 815,1179 817,1194 820,1206 825,1215 829,1220 834,1223 838,1225 843,1225 846,1223 848,1219 848,1213 847,1207 844,1197 842,1183 840,1163 840,1118 839,1062 840,1031 842,1007 845,993 849,982 854,975 860,970 866,966 870,965 872,964 872,963 872,961 871,960 868,960 866,960 795,960 Z M 681,1198 679,1196 678,1196 676,1197 673,1198 670,1200 668,1200 667,1202 666,1205 666,1266 666,1294 667,1312 668,1326 670,1338 672,1345 675,1349 677,1352 679,1353 681,1354 683,1354 685,1354 686,1352 687,1350 687,1347 687,1341 685,1331 683,1317 683,1300 683,1278 683,1234 683,1219 682,1202 681,1200 Z M 816,1213 815,1213 814,1215 814,1217 813,1232 812,1248 810,1262 807,1271 803,1276 801,1279 799,1282 799,1287 799,1318 799,1333 800,1345 802,1354 805,1360 809,1363 812,1366 815,1366 819,1366 821,1364 822,1362 823,1358 823,1350 822,1340 821,1313 821,1236 820,1227 819,1219 817,1214 Z M 755,1270 754,1270 753,1273 753,1320 753,1351 754,1379 755,1395 758,1408 762,1421 766,1427 770,1431 774,1432 777,1432 780,1432 782,1429 784,1427 784,1423 783,1417 780,1410 778,1397 777,1381 776,1358 775,1288 775,1286 773,1284 770,1283 765,1279 760,1275 757,1271 Z M 708,1283 706,1284 705,1285 704,1287 704,1373 705,1401 707,1425 710,1438 713,1447 717,1455 722,1459 725,1460 729,1460 732,1460 734,1458 735,1454 735,1449 734,1442 732,1431 729,1416 728,1393 727,1366 727,1293 726,1291 724,1289 721,1288 716,1288 712,1286 709,1284 Z"/>

  <!-- highlights -->
  <path
      fill="#333"
      d="M 745,864 740,874 735,885 731,897 728,909 726,920 725,930 725,937 725,942 726,946 727,949 729,951 731,953 734,954 739,955 744,955 826,955 827,955 828,954 829,954 829,953 829,952 829,952 829,951 828,950 826,949 824,949 811,946 792,941 774,936 765,932 758,928 753,924 750,919 748,913 747,907 746,898 747,889 750,879 753,870 756,861 759,856 759,854 759,853 758,852 757,851 756,851 755,851 754,852 752,854 749,858 Z"/>
  <path
      fill="#333"
      d="M 1049,1260 1035,1259 1022,1257 1018,1257 1017,1258 1015,1260 1015,1263 1016,1265 1022,1272 1035,1286 1053,1303 1069,1316 1087,1327 1093,1330 1096,1331 1098,1330 1099,1329 1100,1328 1101,1326 1101,1324 1100,1322 1095,1315 1091,1304 1088,1294 1088,1286 1089,1277 1091,1269 1094,1263 1095,1261 1095,1258 1093,1257 1091,1256 1089,1256 1085,1257 1074,1259 1061,1261 Z"/>
  <path
      fill="#666"
      d="M 1166,1224 1185,1210 1204,1191 1221,1169 1237,1147 1253,1120 1265,1091 1277,1061 1287,1024 1295,981 1297,936 1296,889 1292,843 1286,803 1278,772 1270,745 1260,720 1252,699 1248,689 1246,681 1245,676 1245,672 1246,669 1248,668 1251,667 1255,669 1259,672 1265,677 1273,687 1285,706 1301,733 1315,764 1328,804 1339,845 1346,877 1351,914 1354,940 1355,952 1356,956 1357,957 1358,958 1360,958 1362,957 1362,955 1363,951 1363,940 1363,919 1361,891 1357,862 1352,832 1344,800 1333,764 1321,733 1307,702 1291,674 1273,647 1254,627 1236,610 1217,597 1199,587 1179,581 1162,577 1148,576 1132,577 1113,582 1094,591 1075,601 1057,613 1038,630 1025,644 1018,651 1017,654 1017,656 1018,658 1019,659 1021,659 1024,659 1032,657 1046,656 1063,656 1079,658 1097,662 1112,670 1127,680 1141,692 1153,704 1165,719 1176,735 1186,751 1194,768 1201,784 1207,800 1213,817 1217,831 1221,847 1225,866 1228,886 1230,903 1232,923 1233,942 1233,960 1233,980 1231,1003 1228,1026 1224,1050 1220,1071 1214,1093 1209,1111 1203,1128 1196,1144 1188,1161 1178,1179 1168,1194 1158,1208 1146,1221 1136,1231 1134,1233 1134,1235 1134,1237 1136,1238 1138,1238 1142,1237 1152,1232 Z M 1088,1002 1094,963 1098,909 1100,854 1098,816 1096,791 1093,775 1090,761 1088,750 1086,742 1086,735 1088,729 1091,724 1097,721 1104,720 1111,721 1119,723 1130,729 1142,738 1155,755 1169,777 1183,805 1194,836 1203,867 1210,896 1215,926 1217,944 1218,951 1218,955 1220,957 1222,958 1224,958 1225,957 1226,955 1227,948 1225,921 1222,888 1217,860 1210,831 1202,804 1193,780 1183,758 1170,736 1157,719 1145,704 1132,692 1118,681 1103,672 1089,666 1073,662 1060,661 1044,661 1025,664 1007,669 989,676 972,684 956,694 939,706 925,721 914,735 910,742 909,744 909,746 910,748 911,750 913,750 927,750 939,751 951,755 961,760 973,767 982,776 991,786 999,796 1007,809 1015,825 1022,841 1029,860 1034,880 1038,900 1041,920 1043,942 1043,960 1043,980 1041,1007 1036,1033 1031,1053 1024,1077 1014,1099 1003,1119 1000,1124 999,1126 999,1128 999,1130 1001,1131 1004,1131 1009,1130 1017,1125 1031,1113 1048,1093 1063,1068 1077,1035 Z M 842,756 841,758 842,759 843,761 845,762 855,770 867,781 879,796 891,816 900,836 908,857 913,877 917,898 920,920 922,938 922,949 923,953 924,954 926,955 927,954 928,952 928,948 928,935 926,915 924,891 919,859 911,829 908,815 907,803 906,795 907,790 910,785 912,782 916,780 921,779 926,779 934,780 943,783 954,789 966,798 978,811 993,830 1006,852 1016,874 1023,894 1027,911 1030,929 1032,946 1033,952 1034,954 1035,955 1037,955 1038,953 1038,951 1038,945 1036,928 1034,909 1031,892 1026,872 1020,852 1012,832 1003,815 991,796 980,782 968,771 957,763 948,759 941,757 933,756 923,755 845,755 843,756 Z"/>
  <path
      fill="#333"
      d="M 910,1176 910,1178 912,1181 918,1190 928,1202 945,1218 961,1230 968,1234 971,1235 972,1234 973,1233 973,1231 973,1229 970,1225 964,1216 958,1205 954,1192 953,1182 954,1175 954,1172 953,1170 951,1169 949,1168 945,1169 934,1172 923,1173 915,1173 913,1173 911,1174 Z"/>
  <path
      fill="#888"
      d="M 991,750 977,741 964,734 951,730 939,729 931,730 924,731 919,733 915,736 912,739 910,742 909,744 909,746 910,748 911,750 913,750 927,750 939,751 951,755 961,760 973,767 982,776 991,786 999,796 1007,809 1015,825 1022,841 1029,860 1034,880 1038,900 1041,920 1043,942 1043,960 1043,980 1041,1007 1036,1033 1035,1038 1036,1040 1037,1042 1038,1043 1040,1042 1043,1041 1045,1038 1048,1030 1053,1013 1057,989 1060,964 1061,941 1060,918 1058,895 1055,874 1051,855 1044,835 1035,813 1025,794 1015,778 1003,762 Z M 1182,675 1165,657 1147,642 1130,632 1112,625 1095,622 1079,622 1065,624 1053,627 1041,632 1032,638 1025,644 1018,651 1017,654 1017,656 1018,658 1019,659 1021,659 1024,659 1032,657 1046,656 1063,656 1079,658 1097,662 1112,670 1127,680 1141,692 1153,704 1165,719 1176,735 1186,751 1194,768 1201,784 1207,800 1213,817 1217,831 1221,847 1225,866 1228,886 1230,903 1232,923 1233,942 1233,960 1233,980 1231,1003 1228,1026 1224,1050 1220,1071 1214,1093 1213,1100 1213,1103 1213,1106 1216,1107 1219,1107 1222,1106 1226,1102 1232,1093 1239,1078 1247,1057 1254,1032 1259,1004 1262,973 1263,941 1262,910 1259,876 1254,844 1246,812 1237,779 1225,749 1212,720 1198,696 Z"/>
  <path
      fill="#aaa"
      d="M 880,960 880,1058 880,1083 881,1093 881,1096 881,1097 882,1098 883,1098 884,1098 885,1097 886,1096 888,1093 893,1083 899,1069 905,1052 910,1030 914,1007 916,985 917,966 917,955 917,939 915,917 911,895 906,874 900,852 889,828 878,807 866,791 853,778 839,768 827,761 813,758 803,757 H 797 L 788,758 778,761 767,766 756,773 745,782 733,795 722,811 714,827 707,845 699,866 694,884 690,904 688,918 687,932 688,941 689,947 692,951 695,954 699,955 708,955 711,954 714,953 716,952 717,949 718,945 719,933 721,915 726,895 735,871 744,856 754,843 764,833 775,826 785,822 795,820 H 803 L 815,822 826,828 836,835 847,847 857,862 866,880 872,901 876,920 878,933 880,949 Z"/>
  <!-- mist -->
  <rect width="2000" height="2000" fill="url(#mistbase)" filter="url(#misty)"/>
  <script type="application/ecmascript"><![CDATA[
  document.rootElement.onload = ()=>{document.querySelector('#mudwave1_1').beginElement()}
  ]]></script>
</svg>
